<svg xmlns="http://www.w3.org/2000/svg"  viewBox="0 0 100 100" width="200px" height="200px"><path fill="#c7ede6" d="M87.215,56.71C88.35,54.555,89,52.105,89,49.5c0-6.621-4.159-12.257-10.001-14.478 C78.999,35.015,79,35.008,79,35c0-11.598-9.402-21-21-21c-9.784,0-17.981,6.701-20.313,15.757C36.211,29.272,34.638,29,33,29 c-7.692,0-14.023,5.793-14.89,13.252C12.906,43.353,9,47.969,9,53.5C9,59.851,14.149,65,20.5,65c0.177,0,0.352-0.012,0.526-0.022 C21.022,65.153,21,65.324,21,65.5C21,76.822,30.178,86,41.5,86c6.437,0,12.175-2.972,15.934-7.614C59.612,80.611,62.64,82,66,82 c4.65,0,8.674-2.65,10.666-6.518C77.718,75.817,78.837,76,80,76c6.075,0,11-4.925,11-11C91,61.689,89.53,58.727,87.215,56.71z"/><path fill="#fdfcef" d="M82.875,39.5c0,0,3.64,0,6.125,0s4.5-2.015,4.5-4.5c0-2.333-1.782-4.229-4.055-4.455 C89.467,30.364,89.5,30.187,89.5,30c0-2.485-2.015-4.5-4.5-4.5c-1.438,0-2.703,0.686-3.527,1.736 C81.333,24.6,79.171,22.5,76.5,22.5c-2.761,0-5,2.239-5,5c0,0.446,0.077,0.87,0.187,1.282C71.045,28.005,70.086,27.5,69,27.5 c-1.781,0-3.234,1.335-3.455,3.055C65.364,30.533,65.187,30.5,65,30.5c-2.485,0-4.5,2.015-4.5,4.5s2.015,4.5,4.5,4.5s9.5,0,9.5,0 h5.375V40h3V39.5z"/><path fill="#472b29" d="M76.5,22c-3.033,0-5.5,2.467-5.5,5.5c0,0.016,0,0.031,0,0.047C70.398,27.192,69.71,27,69,27 c-1.831,0-3.411,1.261-3.858,3.005C65.095,30.002,65.048,30,65,30c-2.757,0-5,2.243-5,5s2.243,5,5,5h14.875 c0.276,0,0.5-0.224,0.5-0.5s-0.224-0.5-0.5-0.5H65c-2.206,0-4-1.794-4-4s1.794-4,4-4c0.117,0,0.23,0.017,0.343,0.032l0.141,0.019 c0.021,0.003,0.041,0.004,0.062,0.004c0.246,0,0.462-0.185,0.495-0.437C66.232,29.125,67.504,28,69,28 c0.885,0,1.723,0.401,2.301,1.1c0.098,0.118,0.241,0.182,0.386,0.182c0.078,0,0.156-0.018,0.228-0.056 c0.209-0.107,0.314-0.346,0.254-0.573C72.054,28.218,72,27.852,72,27.5c0-2.481,2.019-4.5,4.5-4.5 c2.381,0,4.347,1.872,4.474,4.263c0.011,0.208,0.15,0.387,0.349,0.45c0.05,0.016,0.101,0.024,0.152,0.024 c0.15,0,0.296-0.069,0.392-0.192C82.638,26.563,83.779,26,85,26c2.206,0,4,1.794,4,4c0,0.117-0.017,0.23-0.032,0.343l-0.019,0.141 c-0.016,0.134,0.022,0.268,0.106,0.373c0.084,0.105,0.207,0.172,0.34,0.185C91.451,31.247,93,32.949,93,35c0,2.206-1.794,4-4,4 h-6.125c-0.276,0-0.5,0.224-0.5,0.5s0.224,0.5,0.5,0.5H89c2.757,0,5-2.243,5-5c0-2.397-1.689-4.413-4.003-4.877 C89.999,30.082,90,30.041,90,30c0-2.757-2.243-5-5-5c-1.176,0-2.293,0.416-3.183,1.164C81.219,23.76,79.055,22,76.5,22L76.5,22z"/><path fill="#472b29" d="M75,29c-1.403,0-2.609,0.999-2.913,2.341C71.72,31.119,71.301,31,70.875,31 c-1.202,0-2.198,0.897-2.353,2.068C68.319,33.022,68.126,33,67.938,33c-1.529,0-2.811,1.2-2.918,2.732 C65.01,35.87,65.114,35.99,65.251,36c0.006,0,0.012,0,0.018,0c0.13,0,0.24-0.101,0.249-0.232c0.089-1.271,1.151-2.268,2.419-2.268 c0.229,0,0.47,0.042,0.738,0.127c0.022,0.007,0.045,0.01,0.067,0.01c0.055,0,0.11-0.02,0.156-0.054 C68.962,33.537,69,33.455,69,33.375c0-1.034,0.841-1.875,1.875-1.875c0.447,0,0.885,0.168,1.231,0.473 c0.047,0.041,0.106,0.063,0.165,0.063c0.032,0,0.063-0.006,0.093-0.019c0.088-0.035,0.148-0.117,0.155-0.212 C72.623,30.512,73.712,29.5,75,29.5c0.208,0,0.425,0.034,0.682,0.107c0.023,0.007,0.047,0.01,0.07,0.01 c0.109,0,0.207-0.073,0.239-0.182c0.038-0.133-0.039-0.271-0.172-0.309C75.517,29.04,75.256,29,75,29L75,29z"/><path fill="#472b29" d="M88.883,30.5c-1.326,0-2.508,0.897-2.874,2.182c-0.038,0.133,0.039,0.271,0.172,0.309 C86.205,32.997,86.228,33,86.25,33c0.109,0,0.209-0.072,0.24-0.182C86.795,31.748,87.779,31,88.883,31 c0.117,0,0.23,0.014,0.342,0.029c0.012,0.002,0.023,0.003,0.035,0.003c0.121,0,0.229-0.092,0.246-0.217 c0.019-0.137-0.077-0.263-0.214-0.281C89.158,30.516,89.022,30.5,88.883,30.5L88.883,30.5z"/><path fill="#fff" d="M15.405,51H5.5C5.224,51,5,50.776,5,50.5S5.224,50,5.5,50h9.905c0.276,0,0.5,0.224,0.5,0.5 S15.682,51,15.405,51z"/><path fill="#fff" d="M18.5,51h-1c-0.276,0-0.5-0.224-0.5-0.5s0.224-0.5,0.5-0.5h1c0.276,0,0.5,0.224,0.5,0.5 S18.777,51,18.5,51z"/><path fill="#fff" d="M23.491,53H14.5c-0.276,0-0.5-0.224-0.5-0.5s0.224-0.5,0.5-0.5h8.991c0.276,0,0.5,0.224,0.5,0.5 S23.767,53,23.491,53z"/><path fill="#fff" d="M12.5,53h-1c-0.276,0-0.5-0.224-0.5-0.5s0.224-0.5,0.5-0.5h1c0.276,0,0.5,0.224,0.5,0.5 S12.777,53,12.5,53z"/><path fill="#fff" d="M9.5,53h-2C7.224,53,7,52.776,7,52.5S7.224,52,7.5,52h2c0.276,0,0.5,0.224,0.5,0.5S9.777,53,9.5,53 z"/><path fill="#fff" d="M15.5,55h-2c-0.276,0-0.5-0.224-0.5-0.5s0.224-0.5,0.5-0.5h2c0.276,0,0.5,0.224,0.5,0.5 S15.776,55,15.5,55z"/><path fill="#fff" d="M18.5,46c-0.177,0-0.823,0-1,0c-0.276,0-0.5,0.224-0.5,0.5c0,0.276,0.224,0.5,0.5,0.5 c0.177,0,0.823,0,1,0c0.276,0,0.5-0.224,0.5-0.5C19,46.224,18.776,46,18.5,46z"/><path fill="#fff" d="M18.5,48c-0.177,0-4.823,0-5,0c-0.276,0-0.5,0.224-0.5,0.5c0,0.276,0.224,0.5,0.5,0.5 c0.177,0,4.823,0,5,0c0.276,0,0.5-0.224,0.5-0.5C19,48.224,18.776,48,18.5,48z"/><path fill="#fff" d="M23.5,50c-0.177,0-2.823,0-3,0c-0.276,0-0.5,0.224-0.5,0.5c0,0.276,0.224,0.5,0.5,0.5 c0.177,0,2.823,0,3,0c0.276,0,0.5-0.224,0.5-0.5C24,50.224,23.776,50,23.5,50z"/><g><path fill="#fff" d="M87.5,65h-10c-0.276,0-0.5-0.224-0.5-0.5s0.224-0.5,0.5-0.5h10c0.276,0,0.5,0.224,0.5,0.5 S87.776,65,87.5,65z"/><path fill="#fff" d="M91.5,65h-2c-0.276,0-0.5-0.224-0.5-0.5s0.224-0.5,0.5-0.5h2c0.276,0,0.5,0.224,0.5,0.5 S91.776,65,91.5,65z"/><path fill="#fff" d="M96.5,67h-10c-0.276,0-0.5-0.224-0.5-0.5s0.224-0.5,0.5-0.5h10c0.276,0,0.5,0.224,0.5,0.5 S96.777,67,96.5,67z"/><path fill="#fff" d="M84.5,67h-1c-0.276,0-0.5-0.224-0.5-0.5s0.224-0.5,0.5-0.5h1c0.276,0,0.5,0.224,0.5,0.5 S84.776,67,84.5,67z"/><path fill="#fff" d="M81.375,67H79.5c-0.276,0-0.5-0.224-0.5-0.5s0.224-0.5,0.5-0.5h1.875c0.276,0,0.5,0.224,0.5,0.5 S81.651,67,81.375,67z"/><path fill="#fff" d="M90.5,63h-5c-0.276,0-0.5-0.224-0.5-0.5s0.224-0.5,0.5-0.5h5c0.276,0,0.5,0.224,0.5,0.5 S90.777,63,90.5,63z"/><path fill="#fff" d="M87.5,69h-2c-0.276,0-0.5-0.224-0.5-0.5s0.224-0.5,0.5-0.5h2c0.276,0,0.5,0.224,0.5,0.5 S87.776,69,87.5,69z"/></g><g><path fill="#fdfcef" d="M33.5,78.5c0,0,1.567,0,3.5,0s3.5-1.567,3.5-3.5c0-1.781-1.335-3.234-3.055-3.455 C37.473,71.366,37.5,71.187,37.5,71c0-1.933-1.567-3.5-3.5-3.5c-1.032,0-1.95,0.455-2.59,1.165 c-0.384-1.808-1.987-3.165-3.91-3.165c-2.209,0-4,1.791-4,4c0,0.191,0.03,0.374,0.056,0.558C23.128,69.714,22.592,69.5,22,69.5 c-1.228,0-2.245,0.887-2.455,2.055C19.366,71.527,19.187,71.5,19,71.5c-1.933,0-3.5,1.567-3.5,3.5s1.567,3.5,3.5,3.5s7.5,0,7.5,0 V79h7V78.5z"/><path fill="#472b29" d="M35.25,74C35.112,74,35,73.888,35,73.75c0-1.223,0.995-2.218,2.218-2.218 c0.034,0.009,0.737-0.001,1.244,0.136c0.133,0.036,0.212,0.173,0.176,0.306c-0.036,0.134-0.173,0.213-0.306,0.176 c-0.444-0.12-1.1-0.12-1.113-0.118c-0.948,0-1.719,0.771-1.719,1.718C35.5,73.888,35.388,74,35.25,74z"/><circle cx="28.5" cy="78.5" r=".5" fill="#472b29"/><path fill="#472b29" d="M37,79h-3.5c-0.276,0-0.5-0.224-0.5-0.5s0.224-0.5,0.5-0.5H37c1.654,0,3-1.346,3-3 c0-1.496-1.125-2.768-2.618-2.959c-0.134-0.018-0.255-0.088-0.336-0.196s-0.115-0.244-0.094-0.377C36.975,71.314,37,71.16,37,71 c0-1.654-1.346-3-3-3c-0.85,0-1.638,0.355-2.219,1c-0.125,0.139-0.321,0.198-0.5,0.148c-0.182-0.049-0.321-0.195-0.36-0.379 C30.58,67.165,29.141,66,27.5,66c-1.93,0-3.5,1.57-3.5,3.5c0,0.143,0.021,0.28,0.041,0.418c0.029,0.203-0.063,0.438-0.242,0.54 c-0.179,0.102-0.396,0.118-0.556-0.01C22.878,70.155,22.449,70,22,70c-0.966,0-1.792,0.691-1.963,1.644 c-0.048,0.267-0.296,0.446-0.569,0.405C19.314,72.025,19.16,72,19,72c-1.654,0-3,1.346-3,3s1.346,3,3,3h7.5 c0.276,0,0.5,0.224,0.5,0.5S26.776,79,26.5,79H19c-2.206,0-4-1.794-4-4s1.794-4,4-4c0.059,0,0.116,0.002,0.174,0.006 C19.588,69.82,20.711,69,22,69c0.349,0,0.689,0.061,1.011,0.18C23.176,66.847,25.126,65,27.5,65c1.831,0,3.466,1.127,4.153,2.774 C32.333,67.276,33.155,67,34,67c2.206,0,4,1.794,4,4c0,0.048-0.001,0.095-0.004,0.142C39.739,71.59,41,73.169,41,75 C41,77.206,39.206,79,37,79z"/><path fill="#472b29" d="M31.5,78c-0.159,0-0.841,0-1,0c-0.276,0-0.5,0.224-0.5,0.5c0,0.276,0.224,0.5,0.5,0.5 c0.159,0,0.841,0,1,0c0.276,0,0.5-0.224,0.5-0.5C32,78.224,31.776,78,31.5,78z"/></g><path fill="#a6ce4e" d="M69.502,39.891c-1.06-5.583-6.602-5.95-8.843-6.357c-2.364-0.407-7.05-1.223-7.05-1.223 s-0.53-2.527-3.016-3.138c-0.489-0.122-0.774-0.204-1.1-0.245c-0.448-0.041-0.937-0.082-1.345-0.082h-1.612 c-1.651,0-3.231,0.651-4.4,1.817c-2.872,2.866-8.424,8.428-11.524,11.535c-1.422,1.425-2.064,3.446-1.732,5.431 c0.105,0.625,0.196,1.158,0.237,1.389c0.285,1.915,0.774,3.953,1.019,5.094c1.06,4.687,3.097,6.357,3.097,6.357 c3.016,3.097,7.376,4.401,11.492,4.157c0.122,0,0.53-0.041,0.897-0.122s0.693-0.204,0.937-0.326c2.527-1.549,3.79-7.254,3.79-7.254 c0.285,3.79,4.564,5.135,6.276,5.339c0.041,0,0.611,0.081,1.223,0.204c0.489,0.122,1.019,0.245,1.345,0.408 c1.891,0.84,3.39,2.583,3.775,4.634c0.465,2.478-0.931,4.808-3.28,5.725c-1.652,0.645-3.306,0.279-4.407-0.823 c-0.407-0.408-0.652-0.978-0.652-1.589c0-0.571,0.326-1.1,0.734-1.426c0.367-0.326,1.141-0.408,1.345-0.448 c0.204-0.041,0.489-0.122,0.693-0.245c0.619-0.354,0.998-0.995,0.929-1.768c-0.089-0.995-0.982-1.677-1.98-1.653 c-3.352,0.082-6.04,2.82-6.04,6.152c0,0.774,0.163,1.549,0.448,2.241c0.285,0.734,1.019,1.915,2.404,2.812 c1.1,0.774,2.771,1.508,5.013,1.508c0,0,10.433,0.611,12.185-11.941C70.48,66.055,71.988,53.177,69.502,39.891z M65.178,52.443 c-0.081,0.122-0.163,0.163-0.244,0.163c-0.53,0.082-1.345,0-2.527-0.122c-1.182-0.122-1.997-0.244-2.486-0.489 c-0.082-0.041-0.163-0.082-0.204-0.204c-0.041-0.122,0.041-0.367,0.122-0.571c0.407-1.019,1.549-1.549,2.893-1.426 c1.345,0.163,2.323,0.937,2.486,2.078C65.219,52.076,65.26,52.321,65.178,52.443z"/><path fill="#472b29" d="M58.334,78.698c-0.138,0-0.198-0.004-0.207-0.004c-2.512,0-4.31-0.889-5.369-1.634 c-1.78-1.15-2.482-2.688-2.654-3.131c-0.322-0.783-0.496-1.65-0.496-2.495c0-3.688,3.016-6.761,6.723-6.852 c1.445-0.043,2.577,0.973,2.695,2.29c0.09,1.018-0.389,1.929-1.279,2.439c-0.309,0.184-0.698,0.282-0.901,0.323l-0.146,0.025 c-0.472,0.077-0.766,0.164-0.874,0.26c-0.313,0.252-0.498,0.597-0.498,0.903c0,0.411,0.163,0.81,0.447,1.095 c0.943,0.943,2.31,1.19,3.657,0.666c2.071-0.809,3.241-2.842,2.847-4.944c-0.331-1.766-1.623-3.346-3.371-4.123 c-0.255-0.126-0.698-0.236-1.09-0.333l-0.141-0.035c-0.503-0.1-1.005-0.175-1.105-0.185c-1.449-0.172-4.716-1.138-6.19-3.632 c-0.646,1.885-1.785,4.421-3.456,5.446c-0.283,0.144-0.659,0.303-1.151,0.412c-0.409,0.091-0.872,0.14-1.049,0.14 c-4.63,0.276-9.022-1.316-11.995-4.369c-0.032-0.021-2.178-1.826-3.277-6.691l-0.179-0.813c-0.262-1.176-0.619-2.787-0.85-4.332 c-0.038-0.213-0.129-0.748-0.235-1.375c-0.368-2.206,0.352-4.464,1.928-6.043c3.101-3.107,8.652-8.669,11.525-11.536 c1.307-1.304,3.045-2.022,4.895-2.022h1.611c0.427,0,0.939,0.042,1.408,0.084c0.318,0.04,0.584,0.105,0.971,0.203l0.236,0.06 c2.203,0.542,3.087,2.335,3.393,3.202c1.208,0.21,4.691,0.815,6.623,1.148c0.197,0.036,0.414,0.07,0.649,0.108 c2.501,0.399,7.703,1.23,8.762,6.809c0,0,0,0.001,0.001,0.001c2.256,12.059,1.315,24.144,0.823,26.384l0.037,0.005 C69.368,78.208,59.848,78.698,58.334,78.698z M56.401,65.981c-0.013,0-0.024,0-0.036,0c-2.954,0.072-5.357,2.518-5.357,5.452 c0,0.663,0.137,1.346,0.396,1.975c0.139,0.357,0.688,1.553,2.137,2.491c0.918,0.645,2.444,1.396,4.633,1.396 c0.436,0.025,9.853,0.4,11.491-11.337c0.008-0.053,0.021-0.104,0.039-0.151c0.214-1.075,1.442-13.33-0.89-25.787 c-0.875-4.61-5.089-5.283-7.606-5.686c-0.247-0.04-0.473-0.076-0.673-0.112C58.176,33.816,53.488,33,53.488,33 c-0.282-0.049-0.506-0.265-0.565-0.546c-0.018-0.083-0.484-2.107-2.497-2.602l-0.245-0.062c-0.315-0.08-0.532-0.138-0.774-0.167 c-0.405-0.037-0.871-0.076-1.259-0.076h-1.611c-1.477,0-2.863,0.573-3.906,1.613c-2.873,2.865-8.423,8.427-11.523,11.534 c-1.257,1.259-1.831,3.062-1.537,4.822c0.104,0.621,0.195,1.152,0.236,1.382c0.226,1.515,0.577,3.098,0.834,4.253l0.18,0.816 c0.98,4.339,2.841,5.95,2.859,5.966c2.743,2.811,6.727,4.244,11.005,3.997c0.118-0.002,0.466-0.036,0.786-0.107 c0.373-0.083,0.646-0.204,0.776-0.269c1.812-1.113,3.086-5.273,3.419-6.779c0.075-0.338,0.396-0.569,0.733-0.547 c0.347,0.025,0.622,0.3,0.648,0.646c0.25,3.329,4.171,4.519,5.66,4.696c0.041-0.01,0.844,0.126,1.276,0.212l0.171,0.042 c0.484,0.12,0.985,0.244,1.351,0.427c2.134,0.948,3.735,2.919,4.15,5.131c0.52,2.774-1.007,5.449-3.714,6.506 c-1.854,0.724-3.829,0.348-5.157-0.979c-0.545-0.546-0.857-1.305-0.857-2.084c0-0.736,0.373-1.474,0.996-1.973 c0.383-0.341,0.974-0.478,1.552-0.572c0.278-0.053,0.468-0.117,0.564-0.175c0.422-0.241,0.633-0.642,0.592-1.106 C57.579,66.413,57.053,65.981,56.401,65.981z M64.419,53.339c-0.55,0-1.233-0.071-2.084-0.159c-1.285-0.133-2.144-0.268-2.727-0.56 c-0.112-0.056-0.42-0.208-0.554-0.606c-0.114-0.339-0.003-0.706,0.135-1.052c0.514-1.286,1.921-2.019,3.607-1.865 c1.724,0.209,2.909,1.234,3.116,2.677l0.011,0.224c0.011,0.232,0.025,0.55-0.162,0.833c0,0-0.001,0.001-0.001,0.002 c-0.246,0.367-0.558,0.456-0.758,0.471C64.827,53.328,64.634,53.339,64.419,53.339z M60.495,51.467 c0.448,0.141,1.127,0.231,1.984,0.32c0.854,0.088,1.564,0.16,2.042,0.15l-0.002-0.065c-0.107-0.701-0.809-1.255-1.87-1.384 C61.616,50.401,60.782,50.77,60.495,51.467z"/><path fill="#472b29" d="M33.061,53.952c-0.23,0-0.438-0.159-0.488-0.393l-0.176-0.8c-0.255-1.147-0.596-2.686-0.808-4.108 l-0.245-1.437c-0.046-0.272,0.138-0.53,0.41-0.576c0.27-0.041,0.53,0.137,0.576,0.41l0.246,1.445 c0.208,1.398,0.545,2.917,0.791,4.025l0.182,0.826c0.06,0.27-0.111,0.537-0.381,0.596C33.132,53.948,33.096,53.952,33.061,53.952z"/><path fill="#472b29" d="M39.293,61.375c-0.058,0-0.116-0.01-0.174-0.031c-1.586-0.588-3.002-1.494-4.097-2.617l-0.151-0.156 c-0.057-0.041-0.118-0.093-0.146-0.135c-0.156-0.167-0.529-0.634-0.948-1.447c-0.127-0.245-0.03-0.547,0.215-0.673 c0.245-0.125,0.547-0.03,0.674,0.215c0.353,0.684,0.659,1.076,0.801,1.239c0.035,0.024,0.07,0.05,0.087,0.067l0.187,0.192 c0.991,1.018,2.28,1.84,3.728,2.377c0.259,0.096,0.391,0.384,0.295,0.643C39.687,61.251,39.496,61.375,39.293,61.375z"/><path fill="#472b29" d="M43.753,62.157c-0.334,0-0.666-0.012-0.995-0.036c-0.275-0.019-0.483-0.258-0.464-0.534 c0.02-0.277,0.288-0.488,0.534-0.463c0.558,0.039,1.127,0.042,1.689,0.01c0.001,0,0.102-0.005,0.102-0.006 c0.047-0.005,0.147-0.019,0.241-0.04c0.259-0.085,0.588,0.049,0.673,0.312c0.084,0.263-0.016,0.533-0.279,0.617 c-0.05,0.016-0.109,0.033-0.175,0.048c-0.137,0.03-0.284,0.051-0.384,0.061c-0.007,0.001-0.114,0.007-0.121,0.007 C44.303,62.149,44.028,62.157,43.753,62.157z"/><path fill="#472b29" d="M67.528,48.007c-0.255,0-0.473-0.194-0.497-0.454c-0.059-0.635-0.126-1.276-0.202-1.924 c-0.031-0.274,0.165-0.522,0.439-0.555c0.27-0.033,0.522,0.164,0.555,0.438c0.076,0.655,0.144,1.305,0.204,1.947 c0.025,0.275-0.177,0.519-0.451,0.544C67.56,48.007,67.544,48.007,67.528,48.007z"/><path fill="#472b29" d="M67.05,43.956c-0.244,0-0.458-0.18-0.494-0.429c-0.143-0.989-0.306-1.986-0.492-2.984 c-0.39-2.052-1.628-2.857-5.299-3.444c-0.268-0.042-0.515-0.082-0.705-0.117l-5.588-0.968c-0.271-0.047-0.454-0.306-0.406-0.578 c0.047-0.273,0.311-0.454,0.578-0.407l5.591,0.969c0.189,0.034,0.429,0.073,0.688,0.114c3.557,0.568,5.585,1.413,6.123,4.246 c0.19,1.014,0.355,2.024,0.5,3.027c0.039,0.273-0.15,0.527-0.424,0.566C67.098,43.955,67.074,43.956,67.05,43.956z"/><path fill="#472b29" d="M28.883,48.208c-0.387,0-0.7-0.313-0.7-0.7l0.006-0.228c0.118-2.573,2.222-4.706,4.699-4.706h7.424 c0.717,0,1.3-0.583,1.3-1.3v-8.408c0-2.595,2.11-4.706,4.705-4.706h1.168v1.4h-1.168c-1.822,0-3.305,1.482-3.305,3.305v8.408 c0,1.489-1.211,2.7-2.7,2.7h-7.424c-1.761,0-3.305,1.651-3.305,3.533C29.583,47.894,29.27,48.208,28.883,48.208z"/></svg>